<?xml version="1.0" standalone="no"?>
<!DOCTYPE svg PUBLIC "-//W3C//DTD SVG 20010904//EN"
 "http://www.w3.org/TR/2001/REC-SVG-20010904/DTD/svg10.dtd">
<svg version="1.0" xmlns="http://www.w3.org/2000/svg"
 width="410.000000pt" height="260.000000pt" viewBox="0 0 410.000000 260.000000"
 preserveAspectRatio="xMidYMid meet">

<g transform="translate(0.000000,260.000000) scale(0.100000,-0.100000)"
fill="#000000" stroke="none">
<path d="M0 1300 l0 -1300 2050 0 2050 0 0 1300 0 1300 -2050 0 -2050 0 0
-1300z m2001 1113 c-5 -10 -34 -42 -65 -72 -53 -52 -57 -54 -81 -41 -31 16
-50 9 -123 -50 -75 -60 -146 -158 -184 -254 -31 -77 -33 -88 -33 -211 0 -124
2 -134 33 -212 66 -165 203 -295 372 -355 72 -25 220 -34 302 -19 66 13 179
65 236 108 44 33 50 25 9 -14 -45 -44 -170 -109 -246 -129 -90 -23 -263 -16
-348 14 -187 66 -327 209 -395 407 -14 43 -22 95 -25 181 -5 102 -2 132 16
200 38 138 122 255 256 358 59 45 70 57 67 79 l-3 27 111 0 c102 0 110 -1 101
-17z m242 -133 c232 -72 392 -326 357 -567 -18 -131 -111 -276 -228 -357 -62
-42 -167 -77 -252 -83 -221 -16 -431 129 -503 347 -35 106 -41 172 -23 260 29
138 108 260 217 336 112 78 298 105 432 64z m-1165 -1365 c49 -15 122 -72 122
-95 0 -5 -18 -19 -40 -30 l-40 -21 -37 28 c-32 24 -46 28 -104 28 -77 0 -109
-19 -109 -66 0 -35 32 -54 105 -64 74 -10 156 -34 186 -56 53 -38 76 -137 45
-197 -38 -73 -117 -112 -227 -112 -93 0 -168 29 -214 82 -19 23 -35 45 -35 49
0 4 19 19 43 33 l42 26 25 -30 c81 -96 292 -68 266 36 -8 30 -48 51 -123 63
-143 23 -204 59 -223 132 -39 143 135 248 318 194z m1127 -20 c78 -33 115 -85
115 -162 0 -108 -62 -156 -218 -171 -107 -11 -132 -26 -132 -79 l0 -33 176 0
175 0 -3 -52 -3 -53 -225 0 -225 0 -3 100 c-2 85 1 105 17 132 30 48 91 75
193 84 95 9 126 22 135 57 13 53 -43 102 -117 102 -46 0 -98 -26 -112 -54 -10
-23 -17 -26 -65 -26 -47 0 -53 2 -53 21 0 60 70 128 155 150 43 12 143 3 190
-16z m-1933 -179 c3 -179 5 -197 24 -223 39 -53 115 -72 181 -44 62 25 67 45
73 261 l5 195 53 3 52 3 0 -193 c0 -106 -4 -209 -10 -228 -5 -19 -24 -52 -41
-73 -89 -108 -267 -115 -376 -14 -63 58 -73 102 -73 317 0 97 3 180 7 183 3 4
28 7 54 7 l47 0 4 -194z m1353 177 c65 -22 136 -93 158 -158 31 -90 19 -202
-30 -276 -59 -89 -160 -122 -353 -117 l-105 3 -3 283 -2 282 143 0 c108 0 156
-4 192 -17z m1132 -8 c73 -31 113 -92 113 -174 0 -86 -29 -134 -105 -174 -32
-16 -62 -21 -142 -23 -57 -1 -108 -6 -113 -9 -7 -4 -10 -36 -9 -78 l2 -72 -47
0 -46 0 -3 273 -2 272 158 0 c119 0 167 -4 194 -15z m530 -42 c14 -32 69 -150
121 -263 51 -113 96 -211 99 -217 4 -10 -10 -13 -50 -13 l-56 0 -25 55 -25 56
-148 -3 -148 -3 -25 -52 -25 -53 -52 0 c-29 0 -53 3 -53 6 0 3 48 109 106 237
58 128 113 249 122 270 15 37 15 37 74 37 l59 0 26 -57z m348 -53 c38 -61 72
-109 76 -108 4 2 39 51 78 111 l71 107 60 0 c63 0 69 -4 46 -29 -7 -9 -57 -78
-110 -153 l-96 -138 0 -115 0 -115 -50 0 -50 0 0 115 0 114 -105 155 c-58 85
-105 157 -105 160 0 3 26 6 59 6 l58 0 68 -110z"/>
<path d="M2080 2090 c0 -22 -5 -30 -17 -30 -10 0 -42 -11 -71 -25 -63 -29 -87
-73 -79 -143 6 -56 34 -84 108 -111 l59 -22 0 -95 0 -94 -30 0 c-17 0 -49 9
-71 21 -45 23 -69 19 -69 -9 0 -21 66 -54 132 -66 31 -6 37 -11 40 -34 4 -36
32 -36 36 0 3 21 10 28 35 33 47 10 111 50 127 79 7 14 13 46 13 71 0 65 -25
95 -106 124 l-67 23 0 94 c0 51 4 95 8 98 4 3 26 0 48 -5 62 -16 78 -16 82 4
4 20 -66 56 -110 57 -24 0 -28 4 -28 30 0 23 -4 30 -20 30 -16 0 -20 -7 -20
-30z m0 -175 c0 -94 -4 -99 -60 -70 -33 17 -50 43 -50 75 0 30 53 80 84 80 26
0 26 0 26 -85z m109 -189 c35 -19 54 -58 42 -90 -13 -31 -58 -66 -87 -66 -23
0 -24 2 -24 85 0 79 1 85 20 85 12 0 33 -6 49 -14z"/>
<path d="M2491 2010 c0 -8 6 -24 14 -34 19 -25 19 -9 0 24 -8 14 -14 19 -14
10z"/>
<path d="M2522 1907 c5 -23 8 -85 5 -137 -4 -88 -9 -108 -53 -215 -7 -17 -6
-18 8 -7 24 20 58 127 65 207 5 69 -10 179 -27 190 -4 3 -3 -14 2 -38z"/>
<path d="M1402 628 l3 -173 85 0 c105 0 144 19 178 85 47 94 15 202 -75 249
-12 6 -60 11 -108 11 l-85 0 2 -172z"/>
<path d="M2507 803 c-4 -3 -7 -46 -7 -93 0 -113 2 -114 122 -108 88 5 93 7
120 37 47 52 36 126 -22 156 -30 15 -200 22 -213 8z"/>
<path d="M3147 673 c-26 -60 -47 -111 -47 -115 0 -5 47 -8 105 -8 58 0 105 2
105 3 0 2 -20 48 -45 103 -25 54 -45 105 -45 112 0 6 -6 12 -13 12 -6 0 -33
-48 -60 -107z"/>
</g>
</svg>
